# Blender 3.5.1
# www.blender.org
mtllib board.mtl
o Cube
v -0.500000 -0.100000 0.500000
v -0.500000 0.000000 0.500000
v -0.500000 -0.100000 -0.500000
v -0.500000 0.000000 -0.500000
v 0.500000 -0.100000 0.500000
v 0.500000 0.000000 0.500000
v 0.500000 -0.100000 -0.500000
v 0.500000 0.000000 -0.500000
v -15.328125 -0.099999 15.328124
v -15.328125 -0.099999 -15.328124
v 15.328125 -0.099999 15.328124
v 15.328125 -0.099999 -15.328124
vn -1.0000 -0.0000 -0.0000
vn -0.0000 -0.0000 -1.0000
vn 1.0000 -0.0000 -0.0000
vn -0.0000 -0.0000 1.0000
vn -0.0000 1.0000 -0.0000
vt 0.680741 0.600363
vt 0.599704 0.665153
vt 0.199840 0.000160
vt 0.000160 0.000160
vt 0.600225 0.600117
vt 0.600000 0.600000
vt 0.682242 0.399888
vt 0.600836 0.330118
vt 0.000160 0.000160
vt 0.199840 0.000160
vt 0.600000 0.400000
vt 0.326172 0.599609
vt 0.401132 0.661609
vt 0.000160 0.000160
vt 0.199840 0.000160
vt 0.400391 0.599609
vt 0.400235 0.600766
vt 0.400000 0.600000
vt 0.399553 0.331336
vt 0.326335 0.401975
vt 0.199840 0.000160
vt 0.000160 0.000160
vt 0.399536 0.400147
vt 0.399414 0.400391
vt 0.400000 0.400000
vt 0.199840 0.199840
vt 0.000160 0.199840
vt 0.000160 0.199840
vt 0.199840 0.199840
vt 0.000160 0.199840
vt 0.199840 0.199840
vt 0.199840 0.199840
vt 0.000160 0.199840
s 0
usemtl Material.001
f 1/1/1 2/5/1 4/11/1 3/7/1
f 3/8/2 4/11/2 8/23/2 7/19/2
f 7/20/3 8/24/3 6/16/3 5/12/3
f 5/13/4 6/17/4 2/6/4 1/2/4
f 5/14/5 1/3/5 9/26/5 11/30/5
f 8/25/5 4/11/5 2/6/5 6/18/5
f 3/9/5 7/21/5 12/32/5 10/28/5
f 1/4/5 3/10/5 10/29/5 9/27/5
f 7/22/5 5/15/5 11/31/5 12/33/5
